<!DOCTYPE svg PUBLIC "-//W3C//DTD SVG 1.1//EN" "http://www.w3.org/Graphics/SVG/1.1/DTD/svg11.dtd">
<!-- Uploaded to: SVG Repo, www.svgrepo.com, Transformed by: SVG Repo Mixer Tools -->
<svg fill="#fa00d9" version="1.1" id="Capa_1" xmlns="http://www.w3.org/2000/svg" xmlns:xlink="http://www.w3.org/1999/xlink" width="800px" height="800px" viewBox="0 0 31.04 31.039" xml:space="preserve">
<g id="SVGRepo_bgCarrier" stroke-width="0"/>
<g id="SVGRepo_tracerCarrier" stroke-linecap="round" stroke-linejoin="round"/>
<g id="SVGRepo_iconCarrier"> <g> <path d="M25.986,29.764c-0.695,0.822-1.719,1.275-2.878,1.275H7.931c-1.159,0-2.182-0.453-2.878-1.275 c-0.697-0.824-0.978-1.906-0.786-3.049l1.601-9.589c0.383-2.294,2.586-4.161,4.909-4.161h0.63C9.58,11.671,8.381,9.545,8.381,7.14 c0-3.937,3.203-7.14,7.141-7.14c3.938,0,7.141,3.203,7.141,7.14c0,2.404-1.199,4.53-3.025,5.825h0.629 c2.324,0,4.527,1.866,4.91,4.161l1.6,9.589C26.961,27.857,26.683,28.939,25.986,29.764z"/> </g> </g>
</svg>